<?xml version="1.0" encoding="utf-8"?>
<!-- Generator: Adobe Illustrator 26.0.2, SVG Export Plug-In . SVG Version: 6.00 Build 0)  -->
<svg version="1.1" id="Layer_1" xmlns="http://www.w3.org/2000/svg" xmlns:xlink="http://www.w3.org/1999/xlink" x="0px" y="0px"
	 viewBox="0 0 1080 1080" style="enable-background:new 0 0 1080 1080;" xml:space="preserve">
<style type="text/css">
	.st0{fill:#FFFFFF;}
	.st1{fill:#034F55;}
	.st2{fill:#007780;}
</style>
<g>
	<path d="M836.6,904.4L648.8,716.7c47.2-11.5,91-34.3,121.5-71.3c125-135.1,24.3-368.6-160.7-354.1c222.9,16.2,230.1,347.8,0,341.8
		l-26.7-2.7V47h-90.2v336H74.1v90.2h418.5v477.4h90.2V778.3l189.9,189.9L836.6,904.4z"/>
	<path d="M537.6,129.8c-398.7-12.8-605,476.6-330.4,763.8c83.6,89.6,204.8,144.8,330.4,148.1c-125.4,4.2-253.2-43.7-346.4-132.2
		C-150.2,579.8,112.5,16.6,582.9,38.6c0,0,0,92.9,0,92.9L537.6,129.8L537.6,129.8z"/>
	<path d="M685.3,937.8c261.2-71.7,395.7-396.9,267-636.1c-40.6-81-105.7-150.8-186-197.4c83.8,40,156.4,105.3,205.8,186.5
		c174.6,281.3,14.3,655.1-299.4,748.6c0,0-30.6-88.7-30.6-88.7L685.3,937.8L685.3,937.8z"/>
</g>
</svg>
